<?xml version="1.0" encoding="utf-8"?>
<!-- Generator: $$$/GeneralStr/196=Adobe Illustrator 27.6.0, SVG Export Plug-In . SVG Version: 6.00 Build 0)  -->
<svg version="1.1" id="图层_1" xmlns="http://www.w3.org/2000/svg" xmlns:xlink="http://www.w3.org/1999/xlink" x="0px" y="0px"
	 viewBox="0 0 263.52 252.83" style="enable-background:new 0 0 263.52 252.83;" xml:space="preserve">
<style type="text/css">
	.st0{fill:#171C61;}
	@media (prefers-color-scheme: dark) {
		.st0{fill:#FFFFFF;}
	}
</style>
<path class="st0" d="M219.69,163.89c2.11-6.15,5.92-11.86,7-18.29c3.81-22.69-1.61-43.43-21.46-61.45
	c-3.39-3.08-6.61-6.23-10.82-8.82c-3.01-1.84-4.01-1.25-4.99,1.09c-1.74,4.15-5.14,7.42-9.75,10.07c-2.62,1.51-2.68,2.51,0.12,4.65
	c22.44,17.07,27.58,37.49,19.17,60.01c-3.12,8.37-9.91,15.46-17.56,21.98c-2.73,2.33-6.1,2.24-9.07,0.15
	c-2.78-1.96-1.62-3.72,0.55-5.68c10.05-9.08,17.47-19.06,18.22-31.17c1.03-16.78-6.23-31.06-23.69-41.95
	c-5.89-3.68-13.53-2.2-17.69,2.64c-5.54,6.44-11.04,12.9-16.63,19.32c-1.84,2.11-4.31,4.17-7.87,2.51
	c-5.35-2.49-7.27,0.11-9.56,2.83c-7.29,8.65-8.67,8.75-20.29,2.68c-6.44-3.37-13.26-6.35-19.71-9.71c-4.08-2.13-7.38-4.5-2.29-8.4
	c2.32-1.78,3.43-4.42,5.31-6.56c1.06-1.21,2.01-2.58,0.06-3.3c-6.93-2.56-4.12-6.44-1.72-9.34c10.34-12.42,21.23-24.59,31.89-36.87
	c5.75-6.63,11.31-13.35,17.17-19.93c5.39-6.05,11.78-11.05,22.38-12.02c4.16-0.38,8.36-1.15,10.89-4.77
	c2.12-3.05,5.75-3.6,10.31-0.84c6.47,3.9,13.87,6.96,20.88,10.36c3.47,1.68,3.7,4.22,1.41,6.14c-2.85,2.4-2.7,4.46-2.05,7.42
	c1.23,5.61,1.03,11.27-1.72,16.86c-1.8,3.66,0.09,7.13,4.36,9.59c12.19,7.01,22.77,15.13,30.76,24.96
	c9.7,11.94,15.19,24.97,15.97,38.88c0.53,9.52,0.04,18.92-3.81,28.38C232.86,161.68,230.62,165.81,219.69,163.89z M177.54,48.28
	c2.76-9.87-1.25-17.24-10.53-20.4c-9.99-3.4-22.96-1.75-28.18,4.15c-16.35,18.49-32.37,37.15-48.55,55.73
	c-2.03,2.33-1.63,3.75,1.73,5.32c9.74,4.56,19.21,9.45,28.83,14.15c2.76,1.35,4.9,1.78,7.05-1.19c3.11-4.31,6.81-8.47,11.04-12.2
	c4.34-3.83,2.09-5.89-1.93-8.61c-16.93-11.46-10.87-32.43,9.71-38.97C157.78,42.74,167.33,44.84,177.54,48.28z M159.17,52.96
	c-9.77-0.78-20.03,5.83-20.89,15.22c-0.7,7.68,10.73,15.93,21.15,15.9c10.33-0.03,20.15-7.43,20.3-15.32
	C179.9,60.01,170.81,53.02,159.17,52.96z M110.58,112.81c-1.16-0.78-1.96-1.46-2.93-1.95c-3.85-1.94-7.65-3.96-11.67-5.68
	c-2.52-1.08-4.71-4.08-8.35-0.25c-3.33,3.51-1.62,5.15,2.16,6.91c3.54,1.64,7.14,3.21,10.64,4.89c1.6,0.77,3.23,2.59,5.02,1.32
	C107.47,116.6,107.94,114.14,110.58,112.81z"/>
<path class="st0" d="M89.48,210.89c4.17,3.31,8.21,6.7,12.55,9.85c1.27,0.92,2.94,2.43,5.05,1.76c1.94-0.62,0.95-2.31,0.96-3.49
	c0.08-11.2,0.05-22.4,0.05-34.47c-11.79,5.89-18.84,13.51-25.77,21.26c-9.26,10.36-18.77,20.62-33.88,26.85
	c-7.4,3.05-15.51,4.46-23.99,4.68c-3.79,0.1-6.53-1.12-6.97-3.87c-0.48-3.03,2.77-4.46,6.08-4.4c7.91,0.14,8.97-2.87,8.78-7.95
	c-0.46-12.02-0.27-24.07,0.02-36.1c0.09-3.83-0.75-6.14-6.8-5.51c-4.88,0.51-8-1.43-7.75-4.89c0.24-3.34,3.81-4.28,8.16-3.89
	c15.03,1.36,27.91,5.76,38.12,14.28c7.37,6.14,7.48,6.07-0.11,12.78c-4.84-3.81-8.69-8.32-14.52-11.38
	c-0.97-0.51-1.69-1.46-3.15-1.05c-1.57,0.45-1.07,1.55-1.07,2.39c-0.04,10.74,0.05,21.48-0.04,32.21c-0.03,3.43,1.83,3.32,4.75,1.65
	c8.15-4.67,13.78-10.94,19.59-17.1c10.26-10.88,19.36-22.52,35.93-29.14c27.48-10.98,52.43-0.91,68.33,13.67
	c3.66,3.36-1.52,4.84-3.36,6.82c-2.85,3.08-4.34-0.57-5.27-1.3c-4.44-3.45-8.75-6.94-15.32-10.18c0,6.96,0,13.29,0,19.62
	c0,6.22,0,12.44,0,19.23c7.02-1.79,10.92-5.38,14.7-8.81c10.42-9.45,17.92-20.5,29.3-29.48c10.48-8.27,22.91-13.17,38.11-14.24
	c4.48-0.32,7.2,0.76,7.37,4.38c0.16,3.51-2.92,4.74-6.72,4.38c-7.72-0.74-8.37,2.34-8.26,6.89c0.29,11.66,0.35,23.33-0.02,34.99
	c-0.15,4.59,0.88,7.63,8.04,7.55c0.7-0.01,1.4,0.45,2.12,0.49c3.75,0.21,5.08,1.7,4.89,4.43c-0.21,3.12-2.93,3.57-6.13,3.49
	c-15.62-0.38-28.25-5.25-38.85-13.74c-4.25-3.4-9.06-6.01-2.84-10.75c1.78-1.36,2.73-2,4.87-0.22c3.8,3.16,8.04,6.02,12.08,9.01
	c0.89,0.66,1.83,1.44,3.17,1.14c1.95-0.44,1.31-1.75,1.32-2.8c0.08-10.55,0.18-21.1,0.24-31.65c0.01-1.08,0.3-2.38-1.33-2.94
	c-1.75-0.6-2.54,0.66-3.65,1.33c-10.75,6.48-17.58,15.29-25.43,23.51c-8.28,8.67-16.68,17.05-29.74,22.47
	c-19.66,8.16-41.27,4.8-56.59-4.16c-2.49-1.46-4.74-3.17-6.89-4.91C82.24,217.63,82.27,217.61,89.48,210.89z M137.95,204.05
	c0-6.65-0.2-13.31,0.09-19.95c0.14-3.25-0.95-4.92-5.72-4.52c-2.2,0.18-4.48,0.13-6.69-0.01c-4.03-0.27-5.73,0.72-5.68,4
	c0.2,13.67,0.25,27.35-0.01,41.02c-0.1,5.15,5.07,4.64,8.68,4.45c3.62-0.19,9.68,1.23,9.4-4.48
	C137.68,217.73,137.93,210.88,137.95,204.05z"/>
<path class="st0" d="M83.51,157.38c-19.36,0-38.71-0.04-58.07,0.04c-3.8,0.02-7.4-0.19-7.49-3.66c-0.09-3.68,3.44-4.17,7.68-4.16
	c38.46,0.07,76.93,0.08,115.39-0.05c4.41-0.02,8.03,1.05,8.06,4.09c0.04,3.39-4.17,3.82-8.25,3.8c-19.11-0.09-38.22-0.04-57.32-0.04
	C83.51,157.4,83.51,157.39,83.51,157.38z"/>
</svg>
